<svg width="32" height="32" viewBox="0 0 32 32" fill="none" xmlns="http://www.w3.org/2000/svg">
<path d="M15.188 0.805687C13.834 4.11869 13.021 6.28969 11.516 9.50869C12.438 10.4877 13.573 11.6287 15.412 12.9147C13.433 12.0967 12.084 11.2797 11.073 10.4307C9.146 14.4567 6.125 20.1807 0 31.1907C4.818 28.4097 8.547 26.6957 12.026 26.0397C11.8704 25.3631 11.7936 24.6709 11.797 23.9767L11.802 23.8257C11.88 20.7367 13.484 18.3677 15.385 18.5287C17.286 18.6897 18.765 21.3207 18.692 24.4087C18.6783 24.9657 18.612 25.5202 18.494 26.0647C21.937 26.7367 25.629 28.4447 30.379 31.1897C29.441 29.4657 28.608 27.9087 27.806 26.4297C26.551 25.4557 25.238 24.1847 22.566 22.8097C24.405 23.2887 25.717 23.8407 26.743 24.4557C18.623 9.34669 17.972 7.33569 15.186 0.804688L15.188 0.805687ZM30.531 28.4777V27.6497H30.218V27.5347H30.968V27.6497H30.655V28.4777H30.531ZM31.099 28.4777V27.5347H31.287L31.511 28.2017C31.532 28.2647 31.547 28.3107 31.553 28.3427C31.563 28.3117 31.584 28.2597 31.605 28.1917L31.829 27.5357H32.001V28.4787H31.881V27.6867L31.605 28.4787H31.49L31.219 27.6767V28.4787L31.099 28.4777Z" fill="white"/>
</svg>
