<svg width="551" height="491" viewBox="0 0 551 491" fill="none" xmlns="http://www.w3.org/2000/svg">
    <path fill-rule="evenodd" clip-rule="evenodd" d="M171.182 251.081L301.525 476.868L241.624 477.43L206.826 416.769L171.779 477.105L142.017 477.094L126.773 450.758L176.704 364.902L141.259 303.221L171.182 251.081Z" fill="#807EDD"/>
    <path fill-rule="evenodd" clip-rule="evenodd" d="M218.228 158.077L87.863 383.851L57.426 332.256L92.5602 271.79L22.784 271.606L7.91291 245.825L23.0984 219.456L122.418 219.77L158.112 158.233L218.228 158.077Z" fill="#807EDD"/>
    <path fill-rule="evenodd" clip-rule="evenodd" d="M228.229 338.557L488.938 338.57L459.474 390.727L389.542 390.533L424.271 451.053L409.38 476.822L378.95 476.855L329.562 390.686L258.423 390.541L228.229 338.557Z" fill="#807EDD"/>
    <path fill-rule="evenodd" clip-rule="evenodd" d="M379.971 239.629L249.628 13.8419L309.528 13.28L344.327 73.9405L379.374 13.6042L409.136 13.6159L424.38 39.9515L374.449 125.808L409.893 187.488L379.971 239.629Z" fill="#807EDD"/>
    <path fill-rule="evenodd" clip-rule="evenodd" d="M171.182 251.081L301.525 476.868L241.624 477.43L206.826 416.769L171.779 477.105L142.017 477.094L126.773 450.758L176.704 364.902L141.259 303.221L171.182 251.081Z" fill="#94A2D4"/>
    <path fill-rule="evenodd" clip-rule="evenodd" d="M322.385 151.634L61.6766 151.621L91.1404 99.4643L161.073 99.6582L126.344 39.1385L141.235 13.3693L171.664 13.3357L221.052 99.5055L292.192 99.6497L322.385 151.634Z" fill="#94A2D4"/>
    <path fill-rule="evenodd" clip-rule="evenodd" d="M332.629 332.598L462.994 106.824L493.431 158.419L458.297 218.885L528.073 219.069L542.945 244.85L527.759 271.219L428.44 270.905L392.745 332.441L332.629 332.598Z" fill="#94A2D4"/>
</svg>
